<svg xmlns="http://www.w3.org/2000/svg" viewBox="0 0 1125.61 579.7"><defs><style>.cls-1{fill:#fff;stroke:#edeff0;}.cls-1,.cls-11,.cls-12{stroke-miterlimit:10;}.cls-2{fill:#23123a;}.cls-10,.cls-11,.cls-12,.cls-3,.cls-6,.cls-7,.cls-8{fill:none;}.cls-3{stroke:#58be96;stroke-width:3px;}.cls-10,.cls-3,.cls-6,.cls-7,.cls-8{stroke-linecap:round;stroke-linejoin:round;}.cls-4{fill:#1194f6;}.cls-5{fill:#fffffe;}.cls-10,.cls-6,.cls-7,.cls-8{stroke:#fffffe;}.cls-6,.cls-7,.cls-8{stroke-width:5px;}.cls-6{stroke-dasharray:2 200;}.cls-7{stroke-dasharray:20 200;}.cls-8{stroke-dasharray:80 100;}.cls-9{fill:#58be96;}.cls-10,.cls-11,.cls-12{stroke-width:4px;}.cls-11{stroke:#1194f6;}.cls-12{stroke:#fff;}</style></defs><title>Asset 4</title><g id="Layer_2" data-name="Layer 2"><g id="Dashboard"><rect class="cls-1" x="748.19" y="0.5" width="375.41" height="45"/><rect class="cls-2" x="0.46" y="46" width="1123.17" height="531.61"/><path class="cls-3" d="M449.79,469.16l-41.19,4a6.35,6.35,0,0,1-4.4-1.21h0a6.36,6.36,0,0,1-2.59-4.55l-4-41.18a6.41,6.41,0,0,1,5.77-7l41.18-4a6.43,6.43,0,0,1,7,5.77l4,41.19A6.4,6.4,0,0,1,449.79,469.16Z"/><rect class="cls-4" x="347.69" y="310.92" width="381.56" height="52.44" transform="translate(-29.85 53.19) rotate(-5.5)"/><rect class="cls-5" x="559.32" y="439.07" width="106.29" height="20.76" transform="translate(-40.28 60.81) rotate(-5.5)"/><rect class="cls-5" x="555.57" y="399.06" width="148.69" height="20.76" transform="translate(-36.36 62.3) rotate(-5.5)"/><path class="cls-6" d="M727.08,303.44h0l-4.66-48.34a16.27,16.27,0,0,0-17.77-14.64L357.08,273.94a16.29,16.29,0,0,0-14.65,17.77l4.48,46.49h0l15.93,165.32a16.27,16.27,0,0,0,17.77,14.64l347.57-33.48a16.29,16.29,0,0,0,14.65-17.77Z"/><polygon class="cls-5" points="708.57 464.2 719.26 502.86 726.96 487.72 745.06 485.25 708.57 464.2"/><rect class="cls-5" x="730.04" y="484.04" width="6" height="24.01" transform="translate(-150.52 548.2) rotate(-37.46)"/><path class="cls-7" d="M727.08,303.44h0l-4.66-48.34a16.27,16.27,0,0,0-17.77-14.64L357.08,273.94a16.29,16.29,0,0,0-14.65,17.77l4.48,46.49h0l15.93,165.32a16.27,16.27,0,0,0,17.77,14.64l347.57-33.48a16.29,16.29,0,0,0,14.65-17.77Z"/><path class="cls-8" d="M727.08,303.44h0l-4.66-48.34a16.27,16.27,0,0,0-17.77-14.64L357.08,273.94a16.29,16.29,0,0,0-14.65,17.77l4.48,46.49h0l15.93,165.32a16.27,16.27,0,0,0,17.77,14.64l347.57-33.48a16.29,16.29,0,0,0,14.65-17.77Z"/><path class="cls-9" d="M449.79,469.16l-41.19,4a6.35,6.35,0,0,1-4.4-1.21h0l44.91-55.39h0a6.42,6.42,0,0,1,2.47,4.46l4,41.19A6.4,6.4,0,0,1,449.79,469.16Z"/><polyline class="cls-10" points="398.88 439.08 426.6 436 429.89 452.05 454.33 449.45"/><path class="cls-11" d="M.44,475.85s74,16.88,63,103.6"/><path class="cls-11" d="M861.81,577.61s17.57-136.21,127-148.84,134.78-199.53,134.78-199.53"/><path class="cls-3" d="M953.66,47S930,547.81,1121.41,527"/><path class="cls-12" d="M.44,294.58s158.34,0,174.92,283"/><path class="cls-12" d="M1010,577.61S943.72,196.46,1121.41,95.8"/><path class="cls-5" d="M256.46,524.66A6.66,6.66,0,1,1,249.8,518,6.66,6.66,0,0,1,256.46,524.66Z"/><path class="cls-5" d="M838.26,398.07a6.66,6.66,0,1,1-6.65-6.66A6.66,6.66,0,0,1,838.26,398.07Z"/><circle class="cls-5" cx="917.95" cy="172.56" r="6.66"/><path class="cls-4" d="M243.15,330a6.66,6.66,0,1,1-6.66-6.66A6.66,6.66,0,0,1,243.15,330Z"/><circle class="cls-4" cx="1066.31" cy="402.48" r="6.66" transform="translate(0.58 806.49) rotate(-41.44)"/><circle class="cls-4" cx="57.22" cy="467.22" r="6.66"/><path class="cls-4" d="M806.1,504.7a4.86,4.86,0,1,1-4.85-4.85A4.86,4.86,0,0,1,806.1,504.7Z"/></g></g></svg>