<svg xmlns="http://www.w3.org/2000/svg" viewBox="0 0 1125.61 534.24"><defs><style>.cls-1{fill:#23123a;}.cls-10,.cls-11,.cls-2,.cls-5,.cls-6,.cls-7,.cls-9{fill:none;}.cls-2{stroke:#58be96;stroke-width:3px;}.cls-2,.cls-5,.cls-6,.cls-7,.cls-9{stroke-linecap:round;stroke-linejoin:round;}.cls-3{fill:#1194f6;}.cls-4{fill:#fffffe;}.cls-5,.cls-6,.cls-7,.cls-9{stroke:#fffffe;}.cls-5,.cls-6,.cls-7{stroke-width:5px;}.cls-5{stroke-dasharray:2 200;}.cls-6{stroke-dasharray:20 200;}.cls-7{stroke-dasharray:80 100;}.cls-8{fill:#58be96;}.cls-10,.cls-11,.cls-9{stroke-width:4px;}.cls-10{stroke:#1194f6;}.cls-10,.cls-11{stroke-miterlimit:10;}.cls-11{stroke:#fff;}</style></defs><title>Asset 2</title><g id="Layer_2" data-name="Layer 2"><g id="Dashboard"><rect class="cls-1" x="0.46" y="0.54" width="1123.17" height="531.61"/><path class="cls-2" d="M449.79,423.7l-41.19,4a6.4,6.4,0,0,1-4.4-1.21h0a6.36,6.36,0,0,1-2.59-4.55l-4-41.18a6.41,6.41,0,0,1,5.77-7l41.18-4a6.39,6.39,0,0,1,4.53,1.3,6.47,6.47,0,0,1,2.47,4.47l4,41.19A6.4,6.4,0,0,1,449.79,423.7Z"/><rect class="cls-3" x="347.69" y="265.45" width="381.56" height="52.44" transform="translate(-25.49 52.98) rotate(-5.5)"/><rect class="cls-4" x="559.32" y="393.6" width="106.29" height="20.76" transform="translate(-35.92 60.6) rotate(-5.5)"/><rect class="cls-4" x="555.57" y="353.6" width="148.69" height="20.76" transform="translate(-32 62.09) rotate(-5.5)"/><path class="cls-5" d="M727.08,258h0l-4.66-48.34A16.29,16.29,0,0,0,704.65,195L357.08,228.48a16.28,16.28,0,0,0-14.65,17.76l4.48,46.49h0l15.93,165.33a16.28,16.28,0,0,0,17.77,14.64l347.57-33.48a16.29,16.29,0,0,0,14.65-17.77Z"/><polygon class="cls-4" points="708.57 418.74 719.26 457.4 726.96 442.25 745.06 439.79 708.57 418.74"/><rect class="cls-4" x="730.04" y="438.57" width="6" height="24.01" transform="translate(-122.87 538.83) rotate(-37.46)"/><path class="cls-6" d="M727.08,258h0l-4.66-48.34A16.29,16.29,0,0,0,704.65,195L357.08,228.48a16.28,16.28,0,0,0-14.65,17.76l4.48,46.49h0l15.93,165.33a16.28,16.28,0,0,0,17.77,14.64l347.57-33.48a16.29,16.29,0,0,0,14.65-17.77Z"/><path class="cls-7" d="M727.08,258h0l-4.66-48.34A16.29,16.29,0,0,0,704.65,195L357.08,228.48a16.28,16.28,0,0,0-14.65,17.76l4.48,46.49h0l15.93,165.33a16.28,16.28,0,0,0,17.77,14.64l347.57-33.48a16.29,16.29,0,0,0,14.65-17.77Z"/><path class="cls-8" d="M449.79,423.7l-41.19,4a6.4,6.4,0,0,1-4.4-1.21h0l44.91-55.39h0a6.47,6.47,0,0,1,2.47,4.47l4,41.19A6.4,6.4,0,0,1,449.79,423.7Z"/><polyline class="cls-9" points="398.88 393.61 426.6 390.54 429.89 406.59 454.33 403.98"/><path class="cls-10" d="M.44,430.39s74,16.88,63,103.6"/><path class="cls-10" d="M861.81,532.14s17.57-136.2,127-148.83,134.78-199.53,134.78-199.53"/><path class="cls-2" d="M953.66,1.5S930,502.35,1121.41,481.56"/><path class="cls-11" d="M.44,249.11s158.34,0,174.92,283"/><path class="cls-11" d="M1010,532.14S943.72,151,1121.41,50.34"/><path class="cls-4" d="M256.46,479.2a6.66,6.66,0,1,1-6.66-6.66A6.66,6.66,0,0,1,256.46,479.2Z"/><path class="cls-4" d="M838.26,352.61a6.66,6.66,0,1,1-6.65-6.66A6.65,6.65,0,0,1,838.26,352.61Z"/><circle class="cls-4" cx="917.95" cy="127.1" r="6.66"/><path class="cls-3" d="M243.15,284.48a6.66,6.66,0,1,1-6.66-6.65A6.66,6.66,0,0,1,243.15,284.48Z"/><circle class="cls-3" cx="1066.31" cy="357.02" r="6.66" transform="translate(30.67 795.11) rotate(-41.44)"/><circle class="cls-3" cx="57.22" cy="421.75" r="6.66"/><path class="cls-3" d="M806.1,459.24a4.86,4.86,0,1,1-4.85-4.86A4.86,4.86,0,0,1,806.1,459.24Z"/></g></g></svg>